<?xml version="1.0" encoding="iso-8859-1"?>
<!-- Generator: Adobe Illustrator 19.0.0, SVG Export Plug-In . SVG Version: 6.00 Build 0)  -->
<svg version="1.1" id="Capa_1" xmlns="http://www.w3.org/2000/svg" xmlns:xlink="http://www.w3.org/1999/xlink" x="0px" y="0px"
	 viewBox="0 0 512 512" style="enable-background:new 0 0 512 512;" xml:space="preserve">
<g>
	<g>
		<g>
			<path d="M503.467,494.933H8.533c-4.713,0-8.533,3.82-8.533,8.533S3.82,512,8.533,512h494.933c4.713,0,8.533-3.82,8.533-8.533
				S508.18,494.933,503.467,494.933z"/>
			<path d="M503.467,426.667H409.6c-4.713,0-8.533,3.82-8.533,8.533s3.82,8.533,8.533,8.533h93.867c4.713,0,8.533-3.82,8.533-8.533
				S508.18,426.667,503.467,426.667z"/>
			<path d="M503.467,460.8H409.6c-4.713,0-8.533,3.82-8.533,8.533s3.82,8.533,8.533,8.533h93.867c4.713,0,8.533-3.82,8.533-8.533
				S508.18,460.8,503.467,460.8z"/>
			<path d="M375.467,426.667H8.533C3.82,426.667,0,430.487,0,435.2s3.82,8.533,8.533,8.533h366.933c4.713,0,8.533-3.82,8.533-8.533
				S380.18,426.667,375.467,426.667z"/>
			<path d="M8.533,477.867H102.4c4.713,0,8.533-3.82,8.533-8.533s-3.82-8.533-8.533-8.533H8.533C3.82,460.8,0,464.621,0,469.333
				S3.82,477.867,8.533,477.867z"/>
			<path d="M375.467,460.8H136.533c-4.713,0-8.533,3.82-8.533,8.533s3.82,8.533,8.533,8.533h238.933c4.713,0,8.533-3.82,8.533-8.533
				S380.18,460.8,375.467,460.8z"/>
			<path d="M507.819,368.128l-41.045-24.644l-14.507-21.777V281.6c3.657-0.027,6.902-2.35,8.107-5.803l23.637-70.997h10.923
				c4.713,0,8.533-3.82,8.533-8.533s-3.82-8.533-8.533-8.533h-102.4V153.6c0-4.713-3.82-8.533-8.533-8.533h-59.733
				c0-18.851-15.282-34.133-34.133-34.133S256,126.215,256,145.067h-59.733c-4.713,0-8.533,3.821-8.533,8.533v34.133H128
				c-4.713,0-8.533,3.82-8.533,8.533v17.067H8.533c-4.713,0-8.533,3.82-8.533,8.533V281.6c0,4.713,3.82,8.533,8.533,8.533
				s8.533-3.82,8.533-8.533v-51.2h102.4v17.067h-76.8c-4.713,0-8.533,3.82-8.533,8.533s3.82,8.533,8.533,8.533h76.8v34.133
				c0.017,2.262,0.903,4.432,2.475,6.059l29.269,29.269c-4.044,7.498-6.156,15.886-6.144,24.405
				c-0.028,12.618,4.659,24.792,13.141,34.133H8.533c-4.713,0-8.533,3.821-8.533,8.533s3.82,8.533,8.533,8.533h494.933
				c4.713,0,8.533-3.82,8.533-8.533v-25.6C512.017,372.449,510.423,369.652,507.819,368.128z M349.867,230.4H384v17.067h-34.133
				c-4.713,0-8.533-3.82-8.533-8.533S345.154,230.4,349.867,230.4z M290.133,128c9.414,0.028,17.039,7.653,17.067,17.067h-34.133
				C273.095,135.653,280.719,128.028,290.133,128z M136.533,247.467V230.4h179.2c4.713,0,8.533,3.82,8.533,8.533
				s-3.82,8.533-8.533,8.533H136.533z M229.601,365.898c-3.509,15.585-17.359,26.651-33.335,26.635
				c-18.851,0-34.133-15.282-34.133-34.133c-0.024-7.429,2.406-14.659,6.912-20.565c0.171-0.171,0.256-0.341,0.341-0.427
				c9.825-12.597,27.073-16.695,41.513-9.862C225.341,334.379,233.111,350.313,229.601,365.898z M224.512,315.733h40.021
				c4.713,0,8.533,3.82,8.533,8.533s-3.821,8.533-8.533,8.533h-23.979C236.623,325.929,231.127,320.082,224.512,315.733z
				 M234.325,392.533c6.51-7.16,10.807-16.051,12.373-25.6h61.269c1.566,9.549,5.864,18.44,12.373,25.6H234.325z M314.112,332.8
				h-15.445c-4.713,0-8.533-3.82-8.533-8.533s3.82-8.533,8.533-8.533h31.488C323.54,320.082,318.043,325.929,314.112,332.8z
				 M358.4,392.533c-18.851,0-34.133-15.282-34.133-34.133s15.282-34.133,34.133-34.133s34.133,15.282,34.133,34.133
				S377.251,392.533,358.4,392.533z M452.267,392.533h-55.808c14.858-16.432,17.377-40.589,6.229-59.733h36.48l13.099,19.627
				V392.533z"/>
			<circle cx="93.867" cy="93.867" r="51.2"/>
			<path d="M93.867,25.6c4.713,0,8.533-3.82,8.533-8.533V8.533C102.4,3.821,98.579,0,93.867,0c-4.713,0-8.533,3.82-8.533,8.533
				v8.533C85.333,21.78,89.154,25.6,93.867,25.6z"/>
			<path d="M33.527,45.594c1.6,1.6,3.77,2.5,6.033,2.5c3.451-0.001,6.562-2.08,7.882-5.268c1.32-3.188,0.591-6.858-1.849-9.298
				l-6.033-6.033c-3.348-3.234-8.671-3.188-11.962,0.104c-3.292,3.292-3.338,8.614-0.104,11.962L33.527,45.594z"/>
			<path d="M8.533,102.4h8.533c4.713,0,8.533-3.821,8.533-8.533c0-4.713-3.82-8.533-8.533-8.533H8.533
				C3.82,85.333,0,89.154,0,93.867C0,98.58,3.82,102.4,8.533,102.4z"/>
			<path d="M41.826,139.813c-2.983-0.781-6.156,0.109-8.299,2.327l-6.033,6.033c-3.331,3.332-3.331,8.734,0,12.066
				c3.332,3.331,8.734,3.331,12.066,0l6.033-6.033c2.218-2.143,3.108-5.315,2.327-8.299C47.14,142.924,44.81,140.594,41.826,139.813
				z"/>
			<path d="M85.333,170.667v8.533c0,4.713,3.821,8.533,8.533,8.533c4.713,0,8.533-3.82,8.533-8.533v-8.533
				c0-4.713-3.821-8.533-8.533-8.533C89.154,162.133,85.333,165.954,85.333,170.667z"/>
			<path d="M154.206,142.14c-3.348-3.234-8.671-3.188-11.962,0.104c-3.292,3.292-3.338,8.614-0.104,11.962l6.033,6.033
				c3.348,3.234,8.671,3.188,11.962-0.104c3.292-3.292,3.338-8.614,0.104-11.962L154.206,142.14z"/>
			<path d="M170.667,102.4h8.533c4.713,0,8.533-3.821,8.533-8.533c0-4.713-3.82-8.533-8.533-8.533h-8.533
				c-4.713,0-8.533,3.821-8.533,8.533C162.133,98.58,165.954,102.4,170.667,102.4z"/>
			<path d="M145.907,47.921c2.983,0.781,6.156-0.109,8.299-2.327l6.033-6.033c3.234-3.348,3.188-8.671-0.104-11.962
				c-3.292-3.292-8.614-3.338-11.962-0.104l-6.033,6.033c-2.218,2.143-3.108,5.315-2.327,8.299
				C140.594,44.81,142.924,47.14,145.907,47.921z"/>
		</g>
	</g>
</g>
<g>
</g>
<g>
</g>
<g>
</g>
<g>
</g>
<g>
</g>
<g>
</g>
<g>
</g>
<g>
</g>
<g>
</g>
<g>
</g>
<g>
</g>
<g>
</g>
<g>
</g>
<g>
</g>
<g>
</g>
</svg>
